<?xml version="1.0" encoding="iso-8859-1"?>
<!-- Generator: Adobe Illustrator 18.1.1, SVG Export Plug-In . SVG Version: 6.00 Build 0)  -->
<svg version="1.1" id="Capa_1" xmlns="http://www.w3.org/2000/svg" xmlns:xlink="http://www.w3.org/1999/xlink" x="0px" y="0px"
	 viewBox="0 0 483.789 483.789" style="enable-background:new 0 0 483.789 483.789;" xml:space="preserve">
<g>
	<g id="Icons_43_">
		<g>
			<path d="M277.063,78.169V35.186C277.063,15.755,261.307,0,241.879,0c-19.433,0-35.188,15.755-35.188,35.186V78.17
				c10.755-4.906,22.612-7.802,35.188-7.802C254.45,70.368,266.307,73.264,277.063,78.169z"/>
			<path d="M206.691,233.295v215.311c0,19.431,15.756,35.183,35.188,35.183c19.428,0,35.184-15.752,35.184-35.183V233.304
				c-10.756,4.905-22.613,7.801-35.184,7.801C229.303,241.105,217.446,238.2,206.691,233.295z"/>
			<path d="M241.879,105.554c-27.66,0-50.17,22.516-50.17,50.183c0,27.668,22.51,50.184,50.17,50.184
				c27.674,0,50.195-22.516,50.195-50.184C292.075,128.069,269.553,105.554,241.879,105.554z"/>
			<path d="M382.618,426.812v21.793c0,19.431,15.755,35.183,35.182,35.183c19.434,0,35.184-15.752,35.184-35.183v-21.784
				c-10.749,4.905-22.606,7.798-35.184,7.798C405.224,434.62,393.374,431.717,382.618,426.812z"/>
			<path d="M452.983,271.684V35.186C452.983,15.755,437.233,0,417.799,0c-19.427,0-35.182,15.755-35.182,35.186v236.498
				c10.756-4.903,22.606-7.799,35.182-7.799C430.376,263.885,442.234,266.781,452.983,271.684z"/>
			<path d="M417.799,299.071c-27.661,0-50.163,22.512-50.163,50.183c0,27.668,22.502,50.184,50.163,50.184
				c27.68,0,50.201-22.516,50.201-50.184C468,321.583,445.479,299.071,417.799,299.071z"/>
			<path d="M30.77,391.626v56.979c0,19.431,15.75,35.183,35.184,35.183c19.428,0,35.184-15.752,35.184-35.183v-56.97
				c-10.756,4.906-22.607,7.802-35.184,7.802S41.526,396.532,30.77,391.626z"/>
			<path d="M101.137,236.501V35.186C101.137,15.755,85.381,0,65.953,0C46.519,0,30.769,15.755,30.769,35.186v201.315
				c10.756-4.905,22.607-7.801,35.184-7.801S90.381,231.596,101.137,236.501z"/>
			<path d="M65.954,263.885c-27.661,0-50.164,22.516-50.164,50.184c0,27.667,22.503,50.183,50.164,50.183
				c27.673,0,50.201-22.516,50.201-50.183C116.155,286.401,93.626,263.885,65.954,263.885z"/>
		</g>
	</g>
</g>
<g>
</g>
<g>
</g>
<g>
</g>
<g>
</g>
<g>
</g>
<g>
</g>
<g>
</g>
<g>
</g>
<g>
</g>
<g>
</g>
<g>
</g>
<g>
</g>
<g>
</g>
<g>
</g>
<g>
</g>
</svg>
