<?xml version="1.0" encoding="iso-8859-1"?>
<!-- Generator: Adobe Illustrator 18.0.0, SVG Export Plug-In . SVG Version: 6.00 Build 0)  -->
<!DOCTYPE svg PUBLIC "-//W3C//DTD SVG 1.1//EN" "http://www.w3.org/Graphics/SVG/1.1/DTD/svg11.dtd">
<svg version="1.1" id="Capa_1" xmlns="http://www.w3.org/2000/svg" xmlns:xlink="http://www.w3.org/1999/xlink" x="0px" y="0px"
	 viewBox="0 0 477.777 477.777" style="enable-background:new 0 0 477.777 477.777;" xml:space="preserve">
<path d="M477.685,211.838c-0.392-2.317-2.014-4.24-4.24-5.026L132.016,85.97c-12.705-4.495-26.654,2.161-31.141,14.867
	l-29.406,83.061c-2.161,6.099-1.801,12.811,0.983,18.649c2.783,5.844,7.775,10.339,13.884,12.492l104.821,37.102v49.202
	c-0.541-0.034-1.048-0.165-1.589-0.165H33.532C15.014,301.178,0,316.192,0,334.71c0,18.518,15.014,33.532,33.532,33.532h156.035
	c0.541,0,1.048-0.131,1.589-0.165v8.368c0,9.258,7.498,16.766,16.767,16.766c9.267,0,16.766-7.508,16.766-16.766V264.002
	L346.8,307.22c8.006,2.832,16.911,1.301,23.511-4.052l4.797-3.89l40.983,14.508c6.105,2.161,12.802,1.809,18.648-0.976
	c5.845-2.792,10.331-7.785,12.492-13.884l8.661-24.477c4.24-12.003-1.539-25.01-12.901-30.209l32.386-26.254
	C477.194,216.504,478.078,214.155,477.685,211.838z M246.774,209.398c-3.831,10.848-12.001,19.263-22.086,23.79v-20.066
	c2.733-2.553,4.976-5.657,6.27-9.315c2.193-6.165,1.834-12.796-0.966-18.691c-2.816-5.902-7.761-10.348-13.935-12.533
	c-2.635-0.934-5.369-1.4-8.136-1.4c-10.333,0-19.6,6.549-23.054,16.307c-3.324,9.391-0.524,19.46,6.287,25.91v19.682
	c-19.369-8.669-29.292-30.831-22.104-51.183c7.383-20.842,31.6-32.573,52.606-25.116c10.38,3.675,18.714,11.174,23.462,21.105
	C249.854,187.827,250.443,199.017,246.774,209.398z"/>
<g>
</g>
<g>
</g>
<g>
</g>
<g>
</g>
<g>
</g>
<g>
</g>
<g>
</g>
<g>
</g>
<g>
</g>
<g>
</g>
<g>
</g>
<g>
</g>
<g>
</g>
<g>
</g>
<g>
</g>
</svg>
